<svg width="106" height="24" viewBox="0 0 106 24" fill="none" xmlns="http://www.w3.org/2000/svg">
<path d="M0.644 11.583C0.644 10.249 0.912333 9.08367 1.449 8.087C2.001 7.09033 2.76 6.32367 3.726 5.787C4.70733 5.25033 5.82667 4.982 7.084 4.982C8.694 4.982 10.0357 5.40367 11.109 6.247C12.1977 7.09033 12.9107 8.27867 13.248 9.812H9.062C8.70933 8.83067 8.027 8.34 7.015 8.34C6.29433 8.34 5.71933 8.62367 5.29 9.191C4.86067 9.743 4.646 10.5403 4.646 11.583C4.646 12.6257 4.86067 13.4307 5.29 13.998C5.71933 14.55 6.29433 14.826 7.015 14.826C8.027 14.826 8.70933 14.3353 9.062 13.354H13.248C12.9107 14.8567 12.1977 16.0373 11.109 16.896C10.0203 17.7547 8.67867 18.184 7.084 18.184C5.82667 18.184 4.70733 17.9157 3.726 17.379C2.76 16.8423 2.001 16.0757 1.449 15.079C0.912333 14.0823 0.644 12.917 0.644 11.583ZM24.2408 5.028C25.7128 5.028 26.8934 5.51867 27.7828 6.5C28.6721 7.466 29.1168 8.8 29.1168 10.502V18H25.2068V11.031C25.2068 10.1723 24.9844 9.50533 24.5398 9.03C24.0951 8.55467 23.4971 8.317 22.7458 8.317C21.9944 8.317 21.3964 8.55467 20.9518 9.03C20.5071 9.50533 20.2848 10.1723 20.2848 11.031V18H16.3518V0.98H20.2848V6.891C20.6834 6.32367 21.2278 5.87133 21.9178 5.534C22.6078 5.19667 23.3821 5.028 24.2408 5.028ZM32.0678 11.56C32.0678 10.2413 32.3132 9.08367 32.8038 8.087C33.3098 7.09033 33.9922 6.32367 34.8508 5.787C35.7095 5.25033 36.6678 4.982 37.7258 4.982C38.6305 4.982 39.4202 5.166 40.0948 5.534C40.7848 5.902 41.3138 6.385 41.6818 6.983V5.166H45.6148V18H41.6818V16.183C41.2985 16.781 40.7618 17.264 40.0718 17.632C39.3972 18 38.6075 18.184 37.7028 18.184C36.6602 18.184 35.7095 17.9157 34.8508 17.379C33.9922 16.827 33.3098 16.0527 32.8038 15.056C32.3132 14.044 32.0678 12.8787 32.0678 11.56ZM41.6818 11.583C41.6818 10.6017 41.4058 9.82733 40.8538 9.26C40.3172 8.69267 39.6578 8.409 38.8758 8.409C38.0938 8.409 37.4268 8.69267 36.8748 9.26C36.3382 9.812 36.0698 10.5787 36.0698 11.56C36.0698 12.5413 36.3382 13.3233 36.8748 13.906C37.4268 14.4733 38.0938 14.757 38.8758 14.757C39.6578 14.757 40.3172 14.4733 40.8538 13.906C41.4058 13.3387 41.6818 12.5643 41.6818 11.583ZM56.6132 14.665V18H54.6122C53.1862 18 52.0745 17.655 51.2772 16.965C50.4798 16.2597 50.0812 15.1173 50.0812 13.538V8.432H48.5172V5.166H50.0812V2.038H54.0142V5.166H56.5902V8.432H54.0142V13.584C54.0142 13.9673 54.1062 14.2433 54.2902 14.412C54.4742 14.5807 54.7808 14.665 55.2102 14.665H56.6132Z" fill="white"/>
<path d="M69.6249 14.435H62.6329L61.3449 18H59.1369L64.9329 2.061H67.3479L73.1209 18H70.9129L69.6249 14.435ZM69.0269 12.733L66.1289 4.637L63.2309 12.733H69.0269ZM78.74 7.719C79.154 6.99833 79.7673 6.40033 80.58 5.925C81.408 5.43433 82.3663 5.189 83.455 5.189C84.5743 5.189 85.5863 5.45733 86.491 5.994C87.411 6.53067 88.1316 7.28967 88.653 8.271C89.1743 9.237 89.435 10.364 89.435 11.652C89.435 12.9247 89.1743 14.0593 88.653 15.056C88.1316 16.0527 87.411 16.827 86.491 17.379C85.5863 17.931 84.5743 18.207 83.455 18.207C82.3816 18.207 81.431 17.9693 80.603 17.494C79.7903 17.0033 79.1693 16.3977 78.74 15.677V23.98H76.647V5.396H78.74V7.719ZM87.296 11.652C87.296 10.7013 87.1043 9.87333 86.721 9.168C86.3376 8.46267 85.8163 7.926 85.157 7.558C84.513 7.19 83.8 7.006 83.018 7.006C82.2513 7.006 81.5383 7.19767 80.879 7.581C80.235 7.949 79.7136 8.49333 79.315 9.214C78.9316 9.91933 78.74 10.7397 78.74 11.675C78.74 12.6257 78.9316 13.4613 79.315 14.182C79.7136 14.8873 80.235 15.4317 80.879 15.815C81.5383 16.183 82.2513 16.367 83.018 16.367C83.8 16.367 84.513 16.183 85.157 15.815C85.8163 15.4317 86.3376 14.8873 86.721 14.182C87.1043 13.4613 87.296 12.618 87.296 11.652ZM95.2829 7.719C95.6969 6.99833 96.3103 6.40033 97.1229 5.925C97.9509 5.43433 98.9093 5.189 99.9979 5.189C101.117 5.189 102.129 5.45733 103.034 5.994C103.954 6.53067 104.675 7.28967 105.196 8.271C105.717 9.237 105.978 10.364 105.978 11.652C105.978 12.9247 105.717 14.0593 105.196 15.056C104.675 16.0527 103.954 16.827 103.034 17.379C102.129 17.931 101.117 18.207 99.9979 18.207C98.9246 18.207 97.9739 17.9693 97.1459 17.494C96.3333 17.0033 95.7123 16.3977 95.2829 15.677V23.98H93.1899V5.396H95.2829V7.719ZM103.839 11.652C103.839 10.7013 103.647 9.87333 103.264 9.168C102.881 8.46267 102.359 7.926 101.7 7.558C101.056 7.19 100.343 7.006 99.5609 7.006C98.7943 7.006 98.0813 7.19767 97.4219 7.581C96.7779 7.949 96.2566 8.49333 95.8579 9.214C95.4746 9.91933 95.2829 10.7397 95.2829 11.675C95.2829 12.6257 95.4746 13.4613 95.8579 14.182C96.2566 14.8873 96.7779 15.4317 97.4219 15.815C98.0813 16.183 98.7943 16.367 99.5609 16.367C100.343 16.367 101.056 16.183 101.7 15.815C102.359 15.4317 102.881 14.8873 103.264 14.182C103.647 13.4613 103.839 12.618 103.839 11.652Z" fill="white" fill-opacity="0.5"/>
</svg>
